<svg xmlns="http://www.w3.org/2000/svg" width="301" height="301" viewBox="0 0 301 301" version="1.1"><path d="M 130.500 1.968 C 81.615 8.941, 38.428 40.139, 16.252 84.500 C -2.484 121.978, -4.105 167.920, 11.920 207.302 C 18.398 223.223, 24.439 233.136, 37 248.452 C 41.953 254.492, 54.044 265.857, 59.973 270.046 C 61.883 271.396, 64.050 273.060, 64.789 273.744 C 67.140 275.923, 80.041 283.148, 88.918 287.257 C 100.022 292.397, 106.797 294.567, 121.500 297.693 C 138.252 301.255, 162.334 301.447, 178.500 298.147 C 209.407 291.839, 234.776 278.317, 256.546 256.546 C 278.222 234.871, 291.926 209.271, 298.060 179 C 301.493 162.061, 301.332 137.272, 297.683 120.894 C 294.175 105.151, 291.887 98.613, 284.861 84.264 C 265.064 43.832, 230.552 16.374, 185 4.814 C 174.827 2.232, 171.365 1.850, 155 1.504 C 144.825 1.289, 133.800 1.498, 130.500 1.968 M 146.479 20.027 C 137.835 21.230, 132.265 24.968, 126.403 33.500 C 122.337 39.417, 118 53.637, 118 61.049 L 118 64 103.640 64 C 95.741 64, 87.126 64.295, 84.494 64.656 L 79.709 65.312 80.367 85.406 C 80.728 96.458, 81.436 111.125, 81.939 118 C 82.443 124.875, 83.344 138.150, 83.941 147.500 C 85.300 168.752, 85.435 169.369, 89.779 174.177 C 96.241 181.330, 93.328 181, 149.982 181 C 206.066 181, 205.227 181.084, 210.395 174.942 C 215.518 168.854, 215.342 170.038, 218.423 121 C 219.270 107.525, 220.468 89.995, 221.086 82.044 C 222.575 62.895, 223.864 64, 200.029 64 L 182.280 64 181.709 58.750 C 180.047 43.452, 171.638 28.292, 161.666 22.614 C 156.582 19.719, 153.034 19.115, 146.479 20.027 M 143.500 29.573 C 141.850 30.431, 139.529 32.042, 138.343 33.153 C 134.816 36.457, 130.005 46.484, 128.469 53.730 C 126.057 65.113, 123.683 64, 150.382 64 L 173.765 64 171.559 54.750 C 170.346 49.663, 168.407 43.700, 167.251 41.500 C 161.388 30.350, 151.527 25.398, 143.500 29.573 M 142.713 82.365 C 130.256 85.864, 123.022 98.629, 127.468 109.268 C 129.624 114.429, 135.307 118.331, 145.904 121.926 C 158.515 126.205, 162.701 128.469, 165.060 132.290 C 169.187 138.975, 168.795 143.405, 163.620 148.580 C 157.512 154.688, 146.409 154.433, 135.640 147.939 C 128.511 143.639, 126.531 143.174, 125.607 145.582 C 123.793 150.309, 126.898 153.857, 136.501 158.030 C 142.737 160.740, 156.033 161.804, 161.424 160.025 C 173.030 156.195, 179.123 142.472, 174.114 131.444 C 170.746 124.030, 164.035 119.674, 145.500 112.873 C 133.931 108.628, 130.737 101.329, 137.493 94.574 C 143.735 88.331, 153.662 87.415, 160.877 92.415 C 167.333 96.889, 171.564 95.191, 169.055 89.133 C 166.496 82.954, 152.979 79.481, 142.713 82.365 M 68.591 198.458 C 63.269 200.386, 60.938 202.979, 60.372 207.603 C 59.627 213.685, 62.390 217.163, 70.126 219.882 C 79.373 223.131, 81 224.098, 82.683 227.353 C 85.382 232.573, 81.445 237, 74.104 237 C 72.583 237, 69.151 235.892, 66.476 234.538 C 62.920 232.738, 61.268 232.363, 60.328 233.143 C 56.836 236.041, 66.291 242, 74.381 242 C 79.452 242, 82.150 240.980, 85.750 237.701 C 87.537 236.073, 88 234.572, 88 230.403 C 88 225.960, 87.560 224.714, 85.137 222.290 C 83.562 220.715, 80.299 218.595, 77.887 217.578 C 68.380 213.570, 67.232 212.985, 66.026 211.531 C 63.944 209.022, 65.653 205.043, 69.503 203.434 C 74.176 201.482, 76.672 201.630, 80.089 204.063 C 83.263 206.323, 85 205.934, 85 202.964 C 85 198.686, 75.309 196.024, 68.591 198.458 M 92 220 C 92 241.078, 92.081 242, 93.933 242 C 96.593 242, 97.241 239.215, 96.449 231.178 C 95.794 224.535, 95.858 224.257, 98.522 222.162 C 100.255 220.798, 102.688 220, 105.112 220 C 110.570 220, 112.451 223.085, 111.745 230.876 C 111.050 238.535, 111.757 242, 114.012 242 C 117.814 242, 117.578 220.290, 113.743 217.247 C 110.532 214.699, 105.306 213.904, 101.159 215.333 C 98.912 216.107, 96.881 216.548, 96.646 216.312 C 96.410 216.077, 96.385 212.647, 96.591 208.692 C 97.036 200.118, 96.510 198, 93.933 198 C 92.081 198, 92 198.922, 92 220 M 129.071 216.752 C 123.825 219.426, 121.474 223.291, 121.647 228.953 C 121.901 237.296, 126.830 242, 135.315 242 C 148.801 242, 152.963 222.481, 140.717 216.670 C 136.235 214.543, 133.362 214.563, 129.071 216.752 M 153.667 215.667 C 153.300 216.033, 153 225.210, 153 236.060 C 153 256.096, 153.258 257.487, 156.750 256.269 C 157.616 255.967, 158 253.251, 158 247.417 C 158 242.787, 158.338 239.016, 158.750 239.035 C 159.162 239.055, 160.625 239.714, 162 240.500 C 163.375 241.286, 166.465 241.945, 168.868 241.965 C 172.653 241.995, 173.769 241.466, 177.238 237.998 C 181.162 234.073, 181.232 233.880, 180.809 228.035 C 180.324 221.335, 178.519 218.578, 173.123 216.296 C 169.643 214.824, 162.548 215.305, 161.446 217.087 C 160.534 218.564, 158 218.132, 158 216.500 C 158 215, 154.925 214.409, 153.667 215.667 M 194.415 216.421 C 185.249 220.412, 183.462 233.003, 191.143 239.467 C 193.536 241.481, 195.241 242, 199.455 242 C 204.559 242, 212.016 239.760, 211.985 238.237 C 211.928 235.529, 210.296 235.129, 203.829 236.236 C 198.040 237.228, 196.888 237.156, 194.607 235.662 C 193.173 234.722, 192 233.306, 192 232.513 C 192 231.377, 194.061 231.012, 201.750 230.786 L 211.500 230.500 211.809 227.314 C 212.236 222.906, 209.736 218.577, 205.643 216.635 C 201.516 214.676, 198.553 214.620, 194.415 216.421 M 224.415 216.421 C 215.106 220.475, 213.431 233.413, 221.426 239.511 C 227.278 243.975, 241 242.115, 241 236.858 C 241 235.166, 240.571 234.889, 238.750 235.409 C 232.599 237.165, 227.022 237.245, 224.531 235.613 C 223.139 234.700, 222 233.289, 222 232.477 C 222 231.291, 223.660 231, 230.418 231 C 240.839 231, 242 230.583, 242 226.843 C 242 222.459, 239.518 218.474, 235.643 216.635 C 231.516 214.676, 228.553 214.620, 224.415 216.421 M 130.794 221.526 C 125.896 224.227, 125.718 233.639, 130.523 235.829 C 136.484 238.545, 141.657 236.023, 142.633 229.925 C 143.682 223.369, 136.583 218.333, 130.794 221.526 M 164.500 221.216 C 159.728 223.933, 158.514 229.943, 161.893 234.116 C 164.597 237.456, 171.431 237.421, 174.157 234.055 C 176.862 230.714, 176.294 225.260, 173 222.932 C 169.465 220.433, 166.814 219.898, 164.500 221.216 M 197 220.709 C 194.988 221.449, 192 224.106, 192 225.155 C 192 225.620, 195.375 226, 199.500 226 C 203.625 226, 207 225.583, 207 225.073 C 207 223.658, 201.942 219.990, 200.115 220.079 C 199.227 220.122, 197.825 220.406, 197 220.709 M 224.635 222.073 C 223.186 223.212, 222 224.562, 222 225.073 C 222 225.583, 225.150 226, 229 226 C 236.605 226, 238.116 224.595, 233.777 221.557 C 230.748 219.435, 227.775 219.603, 224.635 222.073" stroke="none" fill="#f95726" fill-rule="evenodd"/><path d="M 0 150.500 L 0 301 71.750 300.860 C 111.213 300.783, 140.125 300.381, 136 299.965 C 127.072 299.066, 111.844 295.886, 103.500 293.177 C 92.682 289.665, 69.306 277.931, 64.789 273.744 C 64.050 273.060, 61.883 271.396, 59.973 270.046 C 48.837 262.177, 35.382 247.782, 25.211 232.852 C 13.644 215.874, 4.485 190.682, 1.991 168.987 C -3.418 121.940, 11.764 78.152, 44.977 44.998 C 69.403 20.616, 99.019 6.021, 132.500 1.868 C 147.423 0.016, 171.216 1.361, 185 4.834 C 230.437 16.285, 265.060 43.824, 284.861 84.264 C 291.887 98.613, 294.175 105.151, 297.683 120.894 C 301.332 137.272, 301.493 162.061, 298.060 179 C 284.869 244.098, 231.997 292.710, 166.500 299.960 C 162.650 300.387, 191.450 300.682, 230.500 300.618 L 301.500 300.500 301.753 150.250 L 302.006 0 151.003 0 L 0 0 0 150.500 M 0.487 151 C 0.487 233.775, 0.605 267.637, 0.750 226.250 C 0.894 184.862, 0.894 117.137, 0.750 75.750 C 0.605 34.362, 0.487 68.225, 0.487 151 M 146.479 20.027 C 137.835 21.230, 132.265 24.968, 126.403 33.500 C 122.337 39.417, 118 53.637, 118 61.049 L 118 64 103.640 64 C 95.741 64, 87.126 64.295, 84.494 64.656 L 79.709 65.312 80.367 85.406 C 80.728 96.458, 81.436 111.125, 81.939 118 C 82.443 124.875, 83.344 138.150, 83.941 147.500 C 85.300 168.752, 85.435 169.369, 89.779 174.177 C 96.241 181.330, 93.328 181, 149.982 181 C 206.066 181, 205.227 181.084, 210.395 174.942 C 215.518 168.854, 215.342 170.038, 218.423 121 C 219.270 107.525, 220.468 89.995, 221.086 82.044 C 222.575 62.895, 223.864 64, 200.029 64 L 182.280 64 181.709 58.750 C 180.047 43.452, 171.638 28.292, 161.666 22.614 C 156.582 19.719, 153.034 19.115, 146.479 20.027 M 143.500 29.573 C 141.850 30.431, 139.529 32.042, 138.343 33.153 C 134.816 36.457, 130.005 46.484, 128.469 53.730 C 126.057 65.113, 123.683 64, 150.382 64 L 173.765 64 171.559 54.750 C 170.346 49.663, 168.407 43.700, 167.251 41.500 C 161.388 30.350, 151.527 25.398, 143.500 29.573 M 142.713 82.365 C 130.256 85.864, 123.022 98.629, 127.468 109.268 C 129.624 114.429, 135.307 118.331, 145.904 121.926 C 158.515 126.205, 162.701 128.469, 165.060 132.290 C 169.187 138.975, 168.795 143.405, 163.620 148.580 C 157.512 154.688, 146.409 154.433, 135.640 147.939 C 128.511 143.639, 126.531 143.174, 125.607 145.582 C 123.793 150.309, 126.898 153.857, 136.501 158.030 C 142.737 160.740, 156.033 161.804, 161.424 160.025 C 173.030 156.195, 179.123 142.472, 174.114 131.444 C 170.746 124.030, 164.035 119.674, 145.500 112.873 C 133.931 108.628, 130.737 101.329, 137.493 94.574 C 143.735 88.331, 153.662 87.415, 160.877 92.415 C 167.333 96.889, 171.564 95.191, 169.055 89.133 C 166.496 82.954, 152.979 79.481, 142.713 82.365 M 68.591 198.458 C 63.269 200.386, 60.938 202.979, 60.372 207.603 C 59.627 213.685, 62.390 217.163, 70.126 219.882 C 79.373 223.131, 81 224.098, 82.683 227.353 C 85.382 232.573, 81.445 237, 74.104 237 C 72.583 237, 69.151 235.892, 66.476 234.538 C 62.920 232.738, 61.268 232.363, 60.328 233.143 C 56.836 236.041, 66.291 242, 74.381 242 C 79.452 242, 82.150 240.980, 85.750 237.701 C 87.537 236.073, 88 234.572, 88 230.403 C 88 225.960, 87.560 224.714, 85.137 222.290 C 83.562 220.715, 80.299 218.595, 77.887 217.578 C 68.380 213.570, 67.232 212.985, 66.026 211.531 C 63.944 209.022, 65.653 205.043, 69.503 203.434 C 74.176 201.482, 76.672 201.630, 80.089 204.063 C 83.263 206.323, 85 205.934, 85 202.964 C 85 198.686, 75.309 196.024, 68.591 198.458 M 92 220 C 92 241.078, 92.081 242, 93.933 242 C 96.593 242, 97.241 239.215, 96.449 231.178 C 95.794 224.535, 95.858 224.257, 98.522 222.162 C 100.255 220.798, 102.688 220, 105.112 220 C 110.570 220, 112.451 223.085, 111.745 230.876 C 111.050 238.535, 111.757 242, 114.012 242 C 117.814 242, 117.578 220.290, 113.743 217.247 C 110.532 214.699, 105.306 213.904, 101.159 215.333 C 98.912 216.107, 96.881 216.548, 96.646 216.312 C 96.410 216.077, 96.385 212.647, 96.591 208.692 C 97.036 200.118, 96.510 198, 93.933 198 C 92.081 198, 92 198.922, 92 220 M 129.071 216.752 C 123.825 219.426, 121.474 223.291, 121.647 228.953 C 121.901 237.296, 126.830 242, 135.315 242 C 148.801 242, 152.963 222.481, 140.717 216.670 C 136.235 214.543, 133.362 214.563, 129.071 216.752 M 153.667 215.667 C 153.300 216.033, 153 225.210, 153 236.060 C 153 256.096, 153.258 257.487, 156.750 256.269 C 157.616 255.967, 158 253.251, 158 247.417 C 158 242.787, 158.338 239.016, 158.750 239.035 C 159.162 239.055, 160.625 239.714, 162 240.500 C 163.375 241.286, 166.465 241.945, 168.868 241.965 C 172.653 241.995, 173.769 241.466, 177.238 237.998 C 181.162 234.073, 181.232 233.880, 180.809 228.035 C 180.324 221.335, 178.519 218.578, 173.123 216.296 C 169.643 214.824, 162.548 215.305, 161.446 217.087 C 160.534 218.564, 158 218.132, 158 216.500 C 158 215, 154.925 214.409, 153.667 215.667 M 194.415 216.421 C 185.249 220.412, 183.462 233.003, 191.143 239.467 C 193.536 241.481, 195.241 242, 199.455 242 C 204.559 242, 212.016 239.760, 211.985 238.237 C 211.928 235.529, 210.296 235.129, 203.829 236.236 C 198.040 237.228, 196.888 237.156, 194.607 235.662 C 193.173 234.722, 192 233.306, 192 232.513 C 192 231.377, 194.061 231.012, 201.750 230.786 L 211.500 230.500 211.809 227.314 C 212.236 222.906, 209.736 218.577, 205.643 216.635 C 201.516 214.676, 198.553 214.620, 194.415 216.421 M 224.415 216.421 C 215.106 220.475, 213.431 233.413, 221.426 239.511 C 227.278 243.975, 241 242.115, 241 236.858 C 241 235.166, 240.571 234.889, 238.750 235.409 C 232.599 237.165, 227.022 237.245, 224.531 235.613 C 223.139 234.700, 222 233.289, 222 232.477 C 222 231.291, 223.660 231, 230.418 231 C 240.839 231, 242 230.583, 242 226.843 C 242 222.459, 239.518 218.474, 235.643 216.635 C 231.516 214.676, 228.553 214.620, 224.415 216.421 M 130.794 221.526 C 125.896 224.227, 125.718 233.639, 130.523 235.829 C 136.484 238.545, 141.657 236.023, 142.633 229.925 C 143.682 223.369, 136.583 218.333, 130.794 221.526 M 164.500 221.216 C 159.728 223.933, 158.514 229.943, 161.893 234.116 C 164.597 237.456, 171.431 237.421, 174.157 234.055 C 176.862 230.714, 176.294 225.260, 173 222.932 C 169.465 220.433, 166.814 219.898, 164.500 221.216 M 197 220.709 C 194.988 221.449, 192 224.106, 192 225.155 C 192 225.620, 195.375 226, 199.500 226 C 203.625 226, 207 225.583, 207 225.073 C 207 223.658, 201.942 219.990, 200.115 220.079 C 199.227 220.122, 197.825 220.406, 197 220.709 M 224.635 222.073 C 223.186 223.212, 222 224.562, 222 225.073 C 222 225.583, 225.150 226, 229 226 C 236.605 226, 238.116 224.595, 233.777 221.557 C 230.748 219.435, 227.775 219.603, 224.635 222.073" stroke="none" fill="#ffffff00" fill-rule="evenodd"/></svg>