<?xml version="1.0" encoding="UTF-8"?>
<!DOCTYPE svg PUBLIC "-//W3C//DTD SVG 1.1//EN" "http://www.w3.org/Graphics/SVG/1.1/DTD/svg11.dtd">
<svg xmlns="http://www.w3.org/2000/svg" version="1.1" width="301px" height="301px" style="shape-rendering:geometricPrecision; text-rendering:geometricPrecision; image-rendering:optimizeQuality; fill-rule:evenodd; clip-rule:evenodd" xmlns:xlink="http://www.w3.org/1999/xlink">
<g><path style="opacity:1" fill="#fdfdfc" d="M 143.5,0.5 C 143.5,0.166667 143.5,-0.166667 143.5,-0.5C 195.833,-0.5 248.167,-0.5 300.5,-0.5C 300.5,45.5 300.5,91.5 300.5,137.5C 299.318,126.926 296.985,116.593 293.5,106.5C 292.935,102.463 291.601,98.7966 289.5,95.5C 289.598,93.4471 288.931,91.7804 287.5,90.5C 272.923,56.2604 248.923,31.2604 215.5,15.5C 213.316,13.4152 210.649,12.4152 207.5,12.5C 204.859,10.5465 201.859,9.04653 198.5,8C 190.862,5.97302 183.195,4.13968 175.5,2.5C 165.057,0.728293 154.39,0.0616265 143.5,0.5 Z"/></g>
<g><path style="opacity:1" fill="#e47351" d="M 143.5,0.5 C 154.39,0.0616265 165.057,0.728293 175.5,2.5C 161.511,1.54206 147.511,1.37539 133.5,2C 126.35,4.31043 119.017,5.4771 111.5,5.5C 121.781,2.17243 132.448,0.505763 143.5,0.5 Z"/></g>
<g><path style="opacity:1" fill="#fc5723" d="M 207.5,12.5 C 209.755,14.3803 212.422,15.3803 215.5,15.5C 248.923,31.2604 272.923,56.2604 287.5,90.5C 287.077,92.7812 287.744,94.4479 289.5,95.5C 291.601,98.7966 292.935,102.463 293.5,106.5C 293.766,112.289 294.766,117.955 296.5,123.5C 293.895,141.674 293.895,159.84 296.5,178C 294.906,181.674 294.239,185.508 294.5,189.5C 277.199,246.632 239.532,282.465 181.5,297C 173.999,298.016 166.666,299.183 159.5,300.5C 151.5,300.5 143.5,300.5 135.5,300.5C 132.833,299.833 130.167,299.167 127.5,298.5C 122.295,296.698 116.962,295.198 111.5,294C 106.799,290.379 101.465,288.879 95.5,289.5C 94.4479,287.744 92.7812,287.077 90.5,287.5C 80.2103,283.693 70.877,278.36 62.5,271.5C 63.4349,268.887 63.6015,266.221 63,263.5C 61.5557,261.845 59.7224,261.178 57.5,261.5C 57.4521,258.708 58.7854,256.875 61.5,256C 68.8559,255.831 76.1892,255.331 83.5,254.5C 76.8333,253.833 70.1667,253.167 63.5,252.5C 68.9329,251.183 74.2662,250.85 79.5,251.5C 79.5,250.5 79.5,249.5 79.5,248.5C 81.1667,248.5 82.8333,248.5 84.5,248.5C 84.33,249.822 84.6634,250.989 85.5,252C 88.8564,253.182 92.1898,253.349 95.5,252.5C 94.0878,251.194 92.4211,250.36 90.5,250C 91.9047,248.731 93.5714,248.231 95.5,248.5C 95.5,247.5 95.5,246.5 95.5,245.5C 92.9897,245.998 90.4897,246.664 88,247.5C 79.8347,245.836 71.668,244.336 63.5,243C 69.3534,243.369 75.1868,243.535 81,243.5C 83.0197,242.968 83.853,241.635 83.5,239.5C 84.8333,239.5 86.1667,239.5 87.5,239.5C 88.3197,233.203 88.653,226.869 88.5,220.5C 88.3118,218.897 88.8118,217.563 90,216.5C 90.1706,225.01 90.6706,233.343 91.5,241.5C 93.451,241.773 94.951,241.107 96,239.5C 96.3333,233.833 96.6667,228.167 97,222.5C 100.338,219.682 104.171,218.849 108.5,220C 109.701,220.903 110.535,222.069 111,223.5C 111.499,229.491 111.666,235.491 111.5,241.5C 113.167,241.5 114.833,241.5 116.5,241.5C 116.764,234.11 116.43,226.777 115.5,219.5C 115.579,218.07 115.246,216.736 114.5,215.5C 115.447,213.941 116.113,212.274 116.5,210.5C 116.267,209.068 115.6,208.568 114.5,209C 113.91,210.509 113.244,212.009 112.5,213.5C 108.56,206.818 106.894,199.485 107.5,191.5C 136.174,191.833 164.841,191.5 193.5,190.5C 196.298,189.031 199.298,188.198 202.5,188C 202.957,187.586 203.291,187.086 203.5,186.5C 199.541,185.673 195.541,185.173 191.5,185C 156.824,184.464 122.157,184.464 87.5,185C 87,184.5 86.5,184 86,183.5C 85.4738,179.401 84.6405,175.401 83.5,171.5C 84.5,171.5 85.5,171.5 86.5,171.5C 88.1667,172.5 89.5,173.833 90.5,175.5C 91.2543,178.091 92.921,179.924 95.5,181C 130.336,181.831 165.002,181.664 199.5,180.5C 207.866,178.134 213.2,172.8 215.5,164.5C 215.969,158.037 217.302,152.37 219.5,147.5C 218.681,131.846 218.681,116.179 219.5,100.5C 219.5,98.8333 219.5,97.1667 219.5,95.5C 220.744,88.1762 221.744,80.6762 222.5,73C 222.496,70.6392 222.163,68.4726 221.5,66.5C 221.196,65.8501 220.863,65.1835 220.5,64.5C 207.517,63.5009 194.517,63.1675 181.5,63.5C 181.76,57.8061 180.76,52.4727 178.5,47.5C 177.732,43.3011 176.399,39.3011 174.5,35.5C 174.385,32.6583 173.385,30.1583 171.5,28C 171.667,27.5 171.833,27 172,26.5C 174.711,29.165 175.711,28.4984 175,24.5C 173.095,23.842 171.595,22.6753 170.5,21C 172.017,19.3149 173.684,17.8149 175.5,16.5C 182.656,14.0578 189.99,13.2245 197.5,14C 194.879,14.9056 195.046,15.4056 198,15.5C 201.329,14.7779 204.496,13.7779 207.5,12.5 Z"/></g>
<g><path style="opacity:1" fill="#de7a62" d="M 207.5,12.5 C 210.649,12.4152 213.316,13.4152 215.5,15.5C 212.422,15.3803 209.755,14.3803 207.5,12.5 Z"/></g>
<g><path style="opacity:1" fill="#fc5723" d="M 175.5,2.5 C 183.195,4.13968 190.862,5.97302 198.5,8C 201.859,9.04653 204.859,10.5465 207.5,12.5C 204.496,13.7779 201.329,14.7779 198,15.5C 195.046,15.4056 194.879,14.9056 197.5,14C 189.99,13.2245 182.656,14.0578 175.5,16.5C 173.684,17.8149 172.017,19.3149 170.5,21C 171.595,22.6753 173.095,23.842 175,24.5C 175.711,28.4984 174.711,29.165 172,26.5C 171.833,27 171.667,27.5 171.5,28C 173.385,30.1583 174.385,32.6583 174.5,35.5C 164.526,18.7891 150.859,14.9558 133.5,24C 125.654,30.6979 120.987,39.1979 119.5,49.5C 117.699,53.9334 117.033,58.6001 117.5,63.5C 104.833,63.5 92.1667,63.5 79.5,63.5C 79.5,74.1667 79.5,84.8333 79.5,95.5C 79.6865,100.845 80.0199,106.178 80.5,111.5C 80.3336,119.507 80.5003,127.507 81,135.5C 80.9467,138.675 81.78,141.342 83.5,143.5C 83.0105,153.019 84.0105,162.352 86.5,171.5C 85.5,171.5 84.5,171.5 83.5,171.5C 84.6405,175.401 85.4738,179.401 86,183.5C 86.5,184 87,184.5 87.5,185C 122.157,184.464 156.824,184.464 191.5,185C 195.541,185.173 199.541,185.673 203.5,186.5C 203.291,187.086 202.957,187.586 202.5,188C 199.298,188.198 196.298,189.031 193.5,190.5C 164.841,191.5 136.174,191.833 107.5,191.5C 106.894,199.485 108.56,206.818 112.5,213.5C 113.244,212.009 113.91,210.509 114.5,209C 115.6,208.568 116.267,209.068 116.5,210.5C 116.113,212.274 115.447,213.941 114.5,215.5C 115.246,216.736 115.579,218.07 115.5,219.5C 110.838,214.06 105.172,212.727 98.5,215.5C 96.8543,210.073 95.8543,204.406 95.5,198.5C 94.4324,197.566 93.099,197.232 91.5,197.5C 91.5,212.167 91.5,226.833 91.5,241.5C 90.6706,233.343 90.1706,225.01 90,216.5C 88.8118,217.563 88.3118,218.897 88.5,220.5C 85.8819,218.726 82.8819,217.726 79.5,217.5C 73.9564,216.599 69.1231,214.265 65,210.5C 64.5515,204.281 67.5515,201.281 74,201.5C 76.8505,202.674 79.6838,204.007 82.5,205.5C 84.2174,204.332 84.8841,202.665 84.5,200.5C 84.4257,198.589 83.4257,197.422 81.5,197C 76.9796,196.186 72.6463,196.353 68.5,197.5C 67.391,197.557 66.391,197.89 65.5,198.5C 61.5786,197.93 59.412,199.597 59,203.5C 58.3333,207.167 58.3333,210.833 59,214.5C 59.6708,215.252 60.5041,215.586 61.5,215.5C 63.0009,216.752 64.6675,217.752 66.5,218.5C 68.827,220.997 71.827,222.497 75.5,223C 74.5,223.333 73.5,223.667 72.5,224C 75.4355,225.462 78.4355,226.629 81.5,227.5C 81.4019,233.373 80.4019,233.706 78.5,228.5C 74.8553,230.499 75.1886,232.332 79.5,234C 77.7818,234.346 76.1151,234.846 74.5,235.5C 71.243,234.449 67.9097,233.782 64.5,233.5C 62.4494,230.881 60.4494,231.048 58.5,234C 63.8993,240.689 70.8993,243.022 79.5,241C 80.745,240.209 82.0783,239.709 83.5,239.5C 83.853,241.635 83.0197,242.968 81,243.5C 75.1868,243.535 69.3534,243.369 63.5,243C 71.668,244.336 79.8347,245.836 88,247.5C 90.4897,246.664 92.9897,245.998 95.5,245.5C 95.5,246.5 95.5,247.5 95.5,248.5C 93.5714,248.231 91.9047,248.731 90.5,250C 92.4211,250.36 94.0878,251.194 95.5,252.5C 92.1898,253.349 88.8564,253.182 85.5,252C 84.6634,250.989 84.33,249.822 84.5,248.5C 82.8333,248.5 81.1667,248.5 79.5,248.5C 79.5,249.5 79.5,250.5 79.5,251.5C 74.2662,250.85 68.9329,251.183 63.5,252.5C 70.1667,253.167 76.8333,253.833 83.5,254.5C 76.1892,255.331 68.8559,255.831 61.5,256C 58.7854,256.875 57.4521,258.708 57.5,261.5C 59.7224,261.178 61.5557,261.845 63,263.5C 63.6015,266.221 63.4349,268.887 62.5,271.5C 55.5752,266.912 49.2418,261.578 43.5,255.5C 41.9829,251.123 39.4829,247.456 36,244.5C 35.2797,242.888 35.4464,241.388 36.5,240C 34.9562,240.487 33.2895,240.987 31.5,241.5C 16.0518,221.545 6.38509,198.879 2.5,173.5C 1.66219,159.851 1.32886,146.184 1.5,132.5C 4.85153,105.047 14.8515,80.3802 31.5,58.5C 33.371,58.1412 34.871,57.1412 36,55.5C 37.7498,53.2657 39.2498,50.9324 40.5,48.5C 59.8745,27.1348 83.5411,12.8014 111.5,5.5C 119.017,5.4771 126.35,4.31043 133.5,2C 147.511,1.37539 161.511,1.54206 175.5,2.5 Z"/></g>
<g><path style="opacity:1" fill="#fcf6f1" d="M 174.5,35.5 C 176.399,39.3011 177.732,43.3011 178.5,47.5C 177.223,48.6936 176.556,50.3603 176.5,52.5C 177.115,56.1711 177.281,59.8377 177,63.5C 175.883,62.0506 175.216,60.3839 175,58.5C 174.57,61.1922 174.737,63.8589 175.5,66.5C 173.266,66.3801 171.099,66.7135 169,67.5C 155.199,66.6922 141.366,66.1922 127.5,66C 125.965,62.3192 124.798,58.4858 124,54.5C 123.821,57.5535 123.321,60.5535 122.5,63.5C 121.671,58.1975 121.171,52.8642 121,47.5C 120.722,48.4158 120.222,49.0825 119.5,49.5C 120.987,39.1979 125.654,30.6979 133.5,24C 150.859,14.9558 164.526,18.7891 174.5,35.5 Z"/></g>
<g><path style="opacity:1" fill="#fb5825" d="M 172.5,61.5 C 157.871,63.4837 142.871,64.1503 127.5,63.5C 126.782,49.7746 131.449,38.2746 141.5,29C 149.303,26.1613 156.137,27.6613 162,33.5C 168.356,41.7327 171.856,51.0661 172.5,61.5 Z"/></g>
<g><path style="opacity:1" fill="#ed7150" d="M 40.5,48.5 C 39.2498,50.9324 37.7498,53.2657 36,55.5C 34.871,57.1412 33.371,58.1412 31.5,58.5C 34.0413,54.7482 37.0413,51.4148 40.5,48.5 Z"/></g>
<g><path style="opacity:1" fill="#fdfdfb" d="M 178.5,47.5 C 180.76,52.4727 181.76,57.8061 181.5,63.5C 193.66,64.3308 205.993,64.8308 218.5,65C 219,65.5 219.5,66 220,66.5C 220.498,69.8168 220.665,73.1501 220.5,76.5C 219.986,82.8217 219.653,89.155 219.5,95.5C 219.5,97.1667 219.5,98.8333 219.5,100.5C 217.517,121.644 216.183,142.977 215.5,164.5C 213.2,172.8 207.866,178.134 199.5,180.5C 165.498,180.667 131.498,180.5 97.5,180C 94.7982,178.988 92.4649,177.488 90.5,175.5C 89.5,173.833 88.1667,172.5 86.5,171.5C 84.0105,162.352 83.0105,153.019 83.5,143.5C 82.1762,132.884 81.5095,122.218 81.5,111.5C 81.473,105.949 80.8063,100.616 79.5,95.5C 79.5,84.8333 79.5,74.1667 79.5,63.5C 92.1667,63.5 104.833,63.5 117.5,63.5C 117.033,58.6001 117.699,53.9334 119.5,49.5C 120.222,49.0825 120.722,48.4158 121,47.5C 121.171,52.8642 121.671,58.1975 122.5,63.5C 123.321,60.5535 123.821,57.5535 124,54.5C 124.798,58.4858 125.965,62.3192 127.5,66C 141.366,66.1922 155.199,66.6922 169,67.5C 171.099,66.7135 173.266,66.3801 175.5,66.5C 174.737,63.8589 174.57,61.1922 175,58.5C 175.216,60.3839 175.883,62.0506 177,63.5C 177.281,59.8377 177.115,56.1711 176.5,52.5C 176.556,50.3603 177.223,48.6936 178.5,47.5 Z"/></g>
<g><path style="opacity:1" fill="#e3bab3" d="M 172.5,61.5 C 173.404,62.209 173.737,63.209 173.5,64.5C 157.991,64.8295 142.658,64.4962 127.5,63.5C 142.871,64.1503 157.871,63.4837 172.5,61.5 Z"/></g>
<g><path style="opacity:1" fill="#e7b3a6" d="M 181.5,63.5 C 194.517,63.1675 207.517,63.5009 220.5,64.5C 220.863,65.1835 221.196,65.8501 221.5,66.5C 221.813,70.0419 221.479,73.3752 220.5,76.5C 220.665,73.1501 220.498,69.8168 220,66.5C 219.5,66 219,65.5 218.5,65C 205.993,64.8308 193.66,64.3308 181.5,63.5 Z"/></g>
<g><path style="opacity:1" fill="#f0683f" d="M 159.5,82.5 C 153.463,82.1707 147.463,82.5041 141.5,83.5C 141.709,84.086 142.043,84.586 142.5,85C 139.522,85.696 136.522,86.196 133.5,86.5C 140.122,80.9064 147.789,79.0731 156.5,81C 157.737,81.2321 158.737,81.7321 159.5,82.5 Z"/></g>
<g><path style="opacity:1" fill="#e87552" d="M 221.5,66.5 C 222.163,68.4726 222.496,70.6392 222.5,73C 221.744,80.6762 220.744,88.1762 219.5,95.5C 219.653,89.155 219.986,82.8217 220.5,76.5C 221.479,73.3752 221.813,70.0419 221.5,66.5 Z"/></g>
<g><path style="opacity:1" fill="#f55c34" d="M 159.5,82.5 C 165.315,82.7409 168.648,85.7409 169.5,91.5C 165.893,95.6552 162.559,95.3218 159.5,90.5C 154.296,88.2556 148.963,87.9223 143.5,89.5C 143.5,87.8333 143.5,86.1667 143.5,84.5C 147.514,84.3345 151.514,84.5012 155.5,85C 158.947,86.9392 162.281,89.1058 165.5,91.5C 166.167,91.1667 166.833,90.8333 167.5,90.5C 166.617,89.452 165.95,88.2853 165.5,87C 163.374,85.5071 161.374,84.0071 159.5,82.5 Z"/></g>
<g><path style="opacity:1" fill="#d97352" d="M 287.5,90.5 C 288.931,91.7804 289.598,93.4471 289.5,95.5C 287.744,94.4479 287.077,92.7812 287.5,90.5 Z"/></g>
<g><path style="opacity:1" fill="#f19b7c" d="M 79.5,95.5 C 80.8063,100.616 81.473,105.949 81.5,111.5C 81.1667,111.5 80.8333,111.5 80.5,111.5C 80.0199,106.178 79.6865,100.845 79.5,95.5 Z"/></g>
<g><path style="opacity:1" fill="#f3694b" d="M 80.5,111.5 C 80.8333,111.5 81.1667,111.5 81.5,111.5C 81.5095,122.218 82.1762,132.884 83.5,143.5C 81.78,141.342 80.9467,138.675 81,135.5C 80.5003,127.507 80.3336,119.507 80.5,111.5 Z"/></g>
<g><path style="opacity:1" fill="#e07858" d="M 1.5,132.5 C 1.32886,146.184 1.66219,159.851 2.5,173.5C 0.945431,165.899 0.278764,158.066 0.5,150C 0.500504,143.99 0.833837,138.157 1.5,132.5 Z"/></g>
<g><path style="opacity:1" fill="#ed6c43" d="M 219.5,100.5 C 218.681,116.179 218.681,131.846 219.5,147.5C 217.302,152.37 215.969,158.037 215.5,164.5C 216.183,142.977 217.517,121.644 219.5,100.5 Z"/></g>
<g><path style="opacity:1" fill="#f85b28" d="M 159.5,82.5 C 161.374,84.0071 163.374,85.5071 165.5,87C 165.95,88.2853 166.617,89.452 167.5,90.5C 166.833,90.8333 166.167,91.1667 165.5,91.5C 162.281,89.1058 158.947,86.9392 155.5,85C 151.514,84.5012 147.514,84.3345 143.5,84.5C 143.5,86.1667 143.5,87.8333 143.5,89.5C 131.452,95.2767 130.452,102.443 140.5,111C 149.689,113.599 158.356,117.266 166.5,122C 176.281,130.244 178.115,140.078 172,151.5C 166.797,158.184 159.964,161.184 151.5,160.5C 141.254,160.808 132.421,157.475 125,150.5C 124.242,148.231 124.409,146.064 125.5,144C 126.833,143.333 128.167,143.333 129.5,144C 138.95,152.423 149.617,154.423 161.5,150C 169.345,142.819 169.345,135.485 161.5,128C 153.733,124.41 145.733,121.41 137.5,119C 124.922,112.526 122.088,103.026 129,90.5C 130.371,88.9586 131.871,87.6253 133.5,86.5C 136.522,86.196 139.522,85.696 142.5,85C 142.043,84.586 141.709,84.086 141.5,83.5C 147.463,82.5041 153.463,82.1707 159.5,82.5 Z"/></g>
<g><path style="opacity:1" fill="#f6612c" d="M 293.5,106.5 C 296.985,116.593 299.318,126.926 300.5,137.5C 300.5,144.833 300.5,152.167 300.5,159.5C 299.313,169.654 297.313,179.654 294.5,189.5C 294.239,185.508 294.906,181.674 296.5,178C 293.895,159.84 293.895,141.674 296.5,123.5C 294.766,117.955 293.766,112.289 293.5,106.5 Z"/></g>
<g><path style="opacity:1" fill="#e88465" d="M 90.5,175.5 C 92.4649,177.488 94.7982,178.988 97.5,180C 131.498,180.5 165.498,180.667 199.5,180.5C 165.002,181.664 130.336,181.831 95.5,181C 92.921,179.924 91.2543,178.091 90.5,175.5 Z"/></g>
<g><path style="opacity:1" fill="#fdfdfb" d="M 300.5,159.5 C 300.5,206.5 300.5,253.5 300.5,300.5C 253.5,300.5 206.5,300.5 159.5,300.5C 166.666,299.183 173.999,298.016 181.5,297C 239.532,282.465 277.199,246.632 294.5,189.5C 297.313,179.654 299.313,169.654 300.5,159.5 Z"/></g>
<g><path style="opacity:1" fill="#f08768" d="M 68.5,197.5 C 72.6463,196.353 76.9796,196.186 81.5,197C 83.4257,197.422 84.4257,198.589 84.5,200.5C 79.5883,197.832 74.2549,196.832 68.5,197.5 Z"/></g>
<g><path style="opacity:1" fill="#fbf2ea" d="M 68.5,197.5 C 74.2549,196.832 79.5883,197.832 84.5,200.5C 84.8841,202.665 84.2174,204.332 82.5,205.5C 79.6838,204.007 76.8505,202.674 74,201.5C 67.5515,201.281 64.5515,204.281 65,210.5C 69.1231,214.265 73.9564,216.599 79.5,217.5C 81.8123,219.636 84.3123,221.636 87,223.5C 88.4804,229.549 87.3137,234.882 83.5,239.5C 82.0783,239.709 80.745,240.209 79.5,241C 70.8993,243.022 63.8993,240.689 58.5,234C 60.4494,231.048 62.4494,230.881 64.5,233.5C 69.4571,236.783 74.7905,237.283 80.5,235C 84.327,231.422 84.327,227.756 80.5,224C 75.9291,221.86 71.2625,220.027 66.5,218.5C 64.6675,217.752 63.0009,216.752 61.5,215.5C 58.036,208.58 59.3694,202.913 65.5,198.5C 66.391,197.89 67.391,197.557 68.5,197.5 Z"/></g>
<g><path style="opacity:1" fill="#fcae82" d="M 95.5,198.5 C 95.8543,204.406 96.8543,210.073 98.5,215.5C 97.791,216.404 96.791,216.737 95.5,216.5C 95.5,210.5 95.5,204.5 95.5,198.5 Z"/></g>
<g><path style="opacity:1" fill="#fdfdfc" d="M -0.5,-0.5 C 47.5,-0.5 95.5,-0.5 143.5,-0.5C 143.5,-0.166667 143.5,0.166667 143.5,0.5C 132.448,0.505763 121.781,2.17243 111.5,5.5C 83.5411,12.8014 59.8745,27.1348 40.5,48.5C 37.0413,51.4148 34.0413,54.7482 31.5,58.5C 14.8515,80.3802 4.85153,105.047 1.5,132.5C 0.833837,138.157 0.500504,143.99 0.5,150C 0.278764,158.066 0.945431,165.899 2.5,173.5C 6.38509,198.879 16.0518,221.545 31.5,241.5C 35.1549,246.486 39.1549,251.153 43.5,255.5C 49.2418,261.578 55.5752,266.912 62.5,271.5C 70.877,278.36 80.2103,283.693 90.5,287.5C 91.7804,288.931 93.4471,289.598 95.5,289.5C 105.55,294.349 116.216,297.349 127.5,298.5C 130.167,299.167 132.833,299.833 135.5,300.5C 90.1667,300.5 44.8333,300.5 -0.5,300.5C -0.5,200.167 -0.5,99.8333 -0.5,-0.5 Z"/></g>
<g><path style="opacity:1" fill="#df6a42" d="M 65.5,198.5 C 59.3694,202.913 58.036,208.58 61.5,215.5C 60.5041,215.586 59.6708,215.252 59,214.5C 58.3333,210.833 58.3333,207.167 59,203.5C 59.412,199.597 61.5786,197.93 65.5,198.5 Z"/></g>
<g><path style="opacity:1" fill="#ec673b" d="M 196.5,214.5 C 187.675,217.812 184.342,224.146 186.5,233.5C 185.883,233.389 185.383,233.056 185,232.5C 184,221.833 183,221.833 182,232.5C 181.617,233.056 181.117,233.389 180.5,233.5C 180.5,230.167 180.5,226.833 180.5,223.5C 182.167,223.5 183.833,223.5 185.5,223.5C 185.055,220.635 185.722,218.135 187.5,216C 190.432,215.047 193.432,214.547 196.5,214.5 Z"/></g>
<g><path style="opacity:1" fill="#fbf2ea" d="M 95.5,198.5 C 95.5,204.5 95.5,210.5 95.5,216.5C 96.791,216.737 97.791,216.404 98.5,215.5C 105.172,212.727 110.838,214.06 115.5,219.5C 116.43,226.777 116.764,234.11 116.5,241.5C 114.833,241.5 113.167,241.5 111.5,241.5C 111.666,235.491 111.499,229.491 111,223.5C 110.535,222.069 109.701,220.903 108.5,220C 104.171,218.849 100.338,219.682 97,222.5C 96.6667,228.167 96.3333,233.833 96,239.5C 94.951,241.107 93.451,241.773 91.5,241.5C 91.5,226.833 91.5,212.167 91.5,197.5C 93.099,197.232 94.4324,197.566 95.5,198.5 Z"/></g>
<g><path style="opacity:1" fill="#fbf4ee" d="M 196.5,214.5 C 202.807,213.875 207.64,216.209 211,221.5C 211.667,224.167 211.667,226.833 211,229.5C 209.989,230.337 208.822,230.67 207.5,230.5C 202.167,230.5 196.833,230.5 191.5,230.5C 191.393,232.903 192.393,234.736 194.5,236C 197.696,236.805 200.696,236.638 203.5,235.5C 206.096,234.735 208.763,234.401 211.5,234.5C 212.067,237.911 210.734,239.911 207.5,240.5C 202.175,241.761 196.842,241.761 191.5,240.5C 189.445,238.445 187.779,236.112 186.5,233.5C 184.342,224.146 187.675,217.812 196.5,214.5 Z"/></g>
<g><path style="opacity:1" fill="#ee7b55" d="M 204.5,222.5 C 205.478,222.811 206.145,223.478 206.5,224.5C 201.5,225.833 196.5,225.833 191.5,224.5C 193.042,221.474 195.542,219.807 199,219.5C 201.399,219.613 203.232,220.613 204.5,222.5 Z"/></g>
<g><path style="opacity:1" fill="#fb5221" d="M 204.5,222.5 C 203.129,223.787 201.295,224.453 199,224.5C 192.425,224.303 192.091,223.303 198,221.5C 199.011,221.892 199.511,222.559 199.5,223.5C 200.816,220.972 201.983,220.972 203,223.5C 203.383,222.944 203.883,222.611 204.5,222.5 Z"/></g>
<g><path style="opacity:1" fill="#f2613a" d="M 66.5,218.5 C 71.2625,220.027 75.9291,221.86 80.5,224C 84.327,227.756 84.327,231.422 80.5,235C 74.7905,237.283 69.4571,236.783 64.5,233.5C 67.9097,233.782 71.243,234.449 74.5,235.5C 76.1151,234.846 77.7818,234.346 79.5,234C 75.1886,232.332 74.8553,230.499 78.5,228.5C 80.4019,233.706 81.4019,233.373 81.5,227.5C 78.4355,226.629 75.4355,225.462 72.5,224C 73.5,223.667 74.5,223.333 75.5,223C 71.827,222.497 68.827,220.997 66.5,218.5 Z"/></g>
<g><path style="opacity:1" fill="#ea8570" d="M 239.5,230.5 C 233.594,230.854 227.927,231.854 222.5,233.5C 221.596,232.791 221.263,231.791 221.5,230.5C 227.5,230.5 233.5,230.5 239.5,230.5 Z"/></g>
<g><path style="opacity:1" fill="#e86c4c" d="M 207.5,230.5 C 203.442,232.062 199.109,233.229 194.5,234C 197.278,235.392 200.278,235.892 203.5,235.5C 200.696,236.638 197.696,236.805 194.5,236C 192.393,234.736 191.393,232.903 191.5,230.5C 196.833,230.5 202.167,230.5 207.5,230.5 Z"/></g>
<g><path style="opacity:1" fill="#fcf1e9" d="M 131.5,214.5 C 143.651,214.485 148.818,220.485 147,232.5C 142.232,241.887 135.066,244.054 125.5,239C 117.281,228.164 119.281,219.998 131.5,214.5 Z"/></g>
<g><path style="opacity:1" fill="#f95821" d="M 140.5,223.5 C 141.285,233.64 136.952,236.973 127.5,233.5C 124.388,223.191 128.055,219.024 138.5,221C 139.381,221.708 140.047,222.542 140.5,223.5 Z"/></g>
<g><path style="opacity:1" fill="#e46d4c" d="M 140.5,223.5 C 143.259,227.418 142.925,231.251 139.5,235C 135.01,237.333 131.01,236.833 127.5,233.5C 136.952,236.973 141.285,233.64 140.5,223.5 Z"/></g>
<g><path style="opacity:1" fill="#faf6ef" d="M 180.5,223.5 C 180.5,226.833 180.5,230.167 180.5,233.5C 175.281,241.534 168.281,243.534 159.5,239.5C 159.44,238.957 159.107,238.624 158.5,238.5C 157.505,244.128 157.171,249.794 157.5,255.5C 156.167,255.5 154.833,255.5 153.5,255.5C 152.504,242.01 152.171,228.344 152.5,214.5C 155.29,214.222 157.79,214.889 160,216.5C 168.988,212.773 175.821,215.106 180.5,223.5 Z"/></g>
<g><path style="opacity:1" fill="#eb6b49" d="M 162.5,234.5 C 165.833,234.5 169.167,234.5 172.5,234.5C 169.167,237.167 165.833,237.167 162.5,234.5 Z"/></g>
<g><path style="opacity:1" fill="#fa5927" d="M 172.5,234.5 C 169.167,234.5 165.833,234.5 162.5,234.5C 158.519,230.246 158.519,225.912 162.5,221.5C 171.706,218.889 175.873,222.222 175,231.5C 173.955,232.373 173.122,233.373 172.5,234.5 Z"/></g>
<g><path style="opacity:1" fill="#fbf4ec" d="M 239.5,230.5 C 233.5,230.5 227.5,230.5 221.5,230.5C 221.263,231.791 221.596,232.791 222.5,233.5C 223.874,235.959 226.04,236.959 229,236.5C 233.082,235.38 237.248,234.713 241.5,234.5C 241.703,236.39 241.037,237.89 239.5,239C 234.398,241.343 229.064,242.01 223.5,241C 214.037,234.26 213.037,226.427 220.5,217.5C 231.231,211.54 238.231,214.373 241.5,226C 241.241,227.787 240.575,229.287 239.5,230.5 Z"/></g>
<g><path style="opacity:1" fill="#ea835f" d="M 234.5,222.5 C 235.478,222.811 236.145,223.478 236.5,224.5C 231.5,225.833 226.5,225.833 221.5,224.5C 221.624,223.893 221.957,223.56 222.5,223.5C 224.304,224.162 226.304,224.495 228.5,224.5C 230.952,224.461 232.952,223.794 234.5,222.5 Z"/></g>
<g><path style="opacity:1" fill="#f55b28" d="M 234.5,222.5 C 232.952,223.794 230.952,224.461 228.5,224.5C 226.304,224.495 224.304,224.162 222.5,223.5C 226.07,218.723 230.07,218.39 234.5,222.5 Z"/></g>
<g><path style="opacity:1" fill="#ed6a43" d="M 79.5,217.5 C 82.8819,217.726 85.8819,218.726 88.5,220.5C 88.653,226.869 88.3197,233.203 87.5,239.5C 86.1667,239.5 84.8333,239.5 83.5,239.5C 87.3137,234.882 88.4804,229.549 87,223.5C 84.3123,221.636 81.8123,219.636 79.5,217.5 Z"/></g>
<g><path style="opacity:1" fill="#f16742" d="M 43.5,255.5 C 39.1549,251.153 35.1549,246.486 31.5,241.5C 33.2895,240.987 34.9562,240.487 36.5,240C 35.4464,241.388 35.2797,242.888 36,244.5C 39.4829,247.456 41.9829,251.123 43.5,255.5 Z"/></g>
<g><path style="opacity:1" fill="#ef7755" d="M 191.5,240.5 C 196.842,241.761 202.175,241.761 207.5,240.5C 205.777,241.8 203.61,242.467 201,242.5C 197.523,242.672 194.356,242.006 191.5,240.5 Z"/></g>
<g><path style="opacity:1" fill="#f88961" d="M 159.5,239.5 C 158.511,244.975 158.178,250.642 158.5,256.5C 156.585,256.784 154.919,256.451 153.5,255.5C 154.833,255.5 156.167,255.5 157.5,255.5C 157.171,249.794 157.505,244.128 158.5,238.5C 159.107,238.624 159.44,238.957 159.5,239.5 Z"/></g>
<g><path style="opacity:1" fill="#da7554" d="M 90.5,287.5 C 92.7812,287.077 94.4479,287.744 95.5,289.5C 93.4471,289.598 91.7804,288.931 90.5,287.5 Z"/></g>
<g><path style="opacity:1" fill="#f36b45" d="M 95.5,289.5 C 101.465,288.879 106.799,290.379 111.5,294C 116.962,295.198 122.295,296.698 127.5,298.5C 116.216,297.349 105.55,294.349 95.5,289.5 Z"/></g>
</svg>
